<svg width="141" height="40" viewBox="0 0 141 40" fill="none" xmlns="http://www.w3.org/2000/svg">
<path d="M14.2208 4.98869C15.6455 4.48917 17.2113 5.16285 17.7174 6.49273C18.1048 7.51091 17.7581 8.61769 16.9363 9.30529L17.3804 10.5163L18.0869 11.3316C18.2482 11.5182 18.4928 11.6074 18.738 11.5772C19.3991 11.4959 20.056 11.4928 20.6993 11.5604C20.9173 11.5836 21.1342 11.5116 21.2907 11.3595L21.8005 10.8661L22.1764 9.77185C21.8566 9.33293 21.7483 8.75165 21.9379 8.19933C22.2597 7.26306 23.3107 6.77916 24.2454 7.16256C25.0506 7.49245 25.4887 8.38808 25.253 9.22153C25.1032 9.75239 24.7242 10.15 24.2576 10.3468L23.8415 11.5594L23.9364 12.2276C23.969 12.4573 24.1054 12.6579 24.3047 12.7782C24.9746 13.1847 25.5899 13.6817 26.1301 14.2562C26.3116 14.4496 26.5824 14.5325 26.8427 14.4801L28.1825 14.2111L29.6961 13.3717C29.7039 12.6274 30.1017 11.9079 30.8019 11.5195C31.8606 10.9326 33.2014 11.327 33.7655 12.4024C34.2748 13.3725 33.9551 14.592 33.0327 15.1892C32.3124 15.6547 31.4335 15.6377 30.7551 15.2402L29.2325 16.084L28.3823 16.9871C28.1541 17.2294 28.0728 17.572 28.1599 17.8928C28.1604 17.8947 28.1607 17.896 28.1612 17.8979C28.3102 18.4507 28.4006 19.0063 28.438 19.557C28.4597 19.8851 28.6454 20.1803 28.9362 20.3371L30.0459 20.9353L32.2454 21.35C32.6331 21.0124 33.1672 20.8491 33.713 20.9515C34.6915 21.1363 35.3215 22.1048 35.0708 23.0797C34.8551 23.9145 34.0325 24.4703 33.1723 24.3609C32.5857 24.2863 32.1121 23.9338 31.8578 23.4598L29.6441 23.0427L28.2787 23.2089C28.027 23.24 27.8072 23.3975 27.7046 23.628C27.296 24.5379 26.7323 25.3748 26.0364 26.0973C25.8634 26.2768 25.7985 26.5338 25.8613 26.7744L26.2006 28.0843L27.0384 29.3942C27.9599 29.2563 28.9188 29.6536 29.4508 30.4856C30.1659 31.6034 29.8415 33.0834 28.7285 33.8046C27.6161 34.5257 26.1023 34.2119 25.3732 33.1081C24.8627 32.3353 24.8571 31.382 25.2709 30.6257L24.3815 29.2354L23.288 28.3384C23.1261 28.2048 22.9054 28.1695 22.7078 28.2397C22.4885 28.3178 22.2649 28.3876 22.0362 28.4485C20.7935 28.7796 19.5406 28.8223 18.3489 28.6198C18.1742 28.5905 17.9955 28.6402 17.8619 28.7557L17.2751 29.2642L16.8386 30.336C17.1339 30.7923 17.2093 31.3783 16.9894 31.919C16.6156 32.8366 15.5392 33.2616 14.6276 32.8274C13.8425 32.4535 13.4548 31.535 13.7366 30.7157C13.916 30.1939 14.3158 29.8178 14.7928 29.6473L15.2763 28.4594L15.1865 27.4161C14.3146 26.8717 13.5388 26.1731 12.9044 25.3474L11.4132 25.4942L10.0175 26.1823C10.0266 27.1158 9.54482 28.0039 8.69918 28.4338C7.50426 29.0407 6.03648 28.5034 5.42117 27.2331C4.80604 25.9634 5.27521 24.4421 6.47012 23.8352C7.36433 23.3809 8.41073 23.5673 9.13879 24.2224L10.455 23.573L11.3685 22.5962C11.4282 22.5323 11.4503 22.4424 11.4276 22.3584L11.4273 22.3571C11.0051 20.7902 11.0482 19.2063 11.4718 17.7506C11.4945 17.6707 11.4774 17.5846 11.4235 17.521L10.6355 16.5826L8.93758 15.6942C8.46992 15.8994 7.9155 15.8988 7.42793 15.6434C6.54711 15.182 6.22972 14.0748 6.75476 13.2157C7.2157 12.4624 8.19747 12.1764 8.99469 12.5626C9.51073 12.8124 9.84362 13.2797 9.94203 13.7966L11.6399 14.6849L12.8484 14.7983C12.9323 14.8064 13.0141 14.7711 13.0674 14.7061C13.6155 14.0312 14.268 13.4354 15.0092 12.9467C15.2126 12.8119 15.339 12.5886 15.3422 12.3453L15.3547 11.2518L14.881 9.96133C13.8541 9.88759 12.9251 9.26768 12.557 8.30058C12.0509 6.97071 12.7959 5.48757 14.2208 4.98869Z" fill="#EC5863"/>
<path d="M25.9898 18.4765C25.0729 15.0737 21.5559 13.0542 18.1342 13.966C14.7125 14.8778 12.6819 18.3756 13.5988 21.7785C14.5156 25.1813 18.0327 27.2008 21.4543 26.289C24.876 25.3772 26.9066 21.8794 25.9898 18.4765Z" fill="#F58A97"/>
<path d="M20.9484 24.4109C17.8476 25.2372 14.6687 23.6565 13.4173 20.8204C13.4527 21.1391 13.5128 21.4592 13.5988 21.7785C14.5156 25.1814 18.0326 27.2008 21.4543 26.289C24.8761 25.3771 26.9066 21.8795 25.9898 18.4765C25.9037 18.1573 25.7949 17.8502 25.6653 17.5566C26.0073 20.635 24.049 23.5847 20.9484 24.4109Z" fill="#F07281"/>
<path d="M11.324 33.496C11.0629 32.5269 10.0614 31.9518 9.08698 32.2115C8.11258 32.4711 7.53433 33.4672 7.79542 34.4362C8.05651 35.4053 9.05807 35.9804 10.0325 35.7207C11.0069 35.4611 11.5851 34.465 11.324 33.496Z" fill="#EB5569"/>
<path d="M34.1106 27.9379C33.9381 27.2979 33.2766 26.918 32.633 27.0895C31.9894 27.261 31.6074 27.9189 31.7799 28.559C31.9523 29.1991 32.6139 29.5789 33.2575 29.4074C33.9011 29.2359 34.283 28.578 34.1106 27.9379Z" fill="#EB5569"/>
<path d="M30.8429 6.00213C30.5889 5.05936 29.6145 4.49988 28.6665 4.75249C27.7185 5.0051 27.1559 5.97416 27.4099 6.91693C27.6639 7.8597 28.6383 8.41918 29.5863 8.16656C30.5343 7.91395 31.0969 6.9449 30.8429 6.00213Z" fill="#EB5569"/>
<path d="M20.1955 22.0477C19.9587 21.1687 19.0502 20.6471 18.1664 20.8826C17.2826 21.1181 16.7581 22.0216 16.9949 22.9005C17.2318 23.7795 18.1402 24.3011 19.024 24.0656C19.9078 23.8301 20.4323 22.9266 20.1955 22.0477Z" fill="#EB5569"/>
<path d="M24.3108 19.5818C24.1496 18.9835 23.5313 18.6285 22.9297 18.7888C22.3281 18.9491 21.9711 19.564 22.1323 20.1623C22.2935 20.7606 22.9119 21.1156 23.5134 20.9553C24.115 20.795 24.472 20.18 24.3108 19.5818Z" fill="#EB5569"/>
<path d="M19.9578 17.0961C19.8224 16.5937 19.3032 16.2956 18.7981 16.4302C18.2929 16.5648 17.9931 17.0812 18.1285 17.5835C18.2639 18.0859 18.7831 18.384 19.2882 18.2494C19.7934 18.1148 20.0932 17.5984 19.9578 17.0961Z" fill="#EB5569"/>
<path d="M51.683 19.18C49.955 19.18 48.605 18.76 47.633 17.92C46.661 17.068 46.145 15.862 46.085 14.302C46.073 13.954 46.067 13.402 46.067 12.646C46.067 11.89 46.073 11.338 46.085 10.99C46.145 9.466 46.667 8.29 47.651 7.462C48.647 6.634 49.991 6.22 51.683 6.22C52.823 6.22 53.813 6.406 54.653 6.778C55.505 7.15 56.153 7.624 56.597 8.2C57.053 8.776 57.293 9.37 57.317 9.982C57.317 10.09 57.275 10.18 57.191 10.252C57.119 10.324 57.029 10.36 56.921 10.36H54.293C54.173 10.36 54.077 10.342 54.005 10.306C53.933 10.27 53.873 10.204 53.825 10.108C53.669 9.76 53.423 9.46 53.087 9.208C52.751 8.944 52.283 8.812 51.683 8.812C50.255 8.812 49.505 9.568 49.433 11.08C49.421 11.416 49.415 11.938 49.415 12.646C49.415 13.342 49.421 13.864 49.433 14.212C49.505 15.796 50.273 16.588 51.737 16.588C52.445 16.588 53.009 16.408 53.429 16.048C53.861 15.676 54.077 15.112 54.077 14.356V14.014H52.385C52.253 14.014 52.145 13.972 52.061 13.888C51.977 13.792 51.935 13.678 51.935 13.546V12.214C51.935 12.082 51.977 11.974 52.061 11.89C52.145 11.794 52.253 11.746 52.385 11.746H56.921C57.053 11.746 57.161 11.794 57.245 11.89C57.329 11.974 57.371 12.082 57.371 12.214V14.266C57.371 15.286 57.137 16.168 56.669 16.912C56.201 17.644 55.535 18.208 54.671 18.604C53.819 18.988 52.823 19.18 51.683 19.18ZM63.6661 19.18C62.1781 19.18 61.0321 18.826 60.2281 18.118C59.4241 17.41 58.9861 16.414 58.9141 15.13C58.9021 14.974 58.8961 14.704 58.8961 14.32C58.8961 13.936 58.9021 13.666 58.9141 13.51C58.9861 12.238 59.4361 11.248 60.2641 10.54C61.0921 9.82 62.2261 9.46 63.6661 9.46C65.1181 9.46 66.2581 9.82 67.0861 10.54C67.9141 11.248 68.3641 12.238 68.4361 13.51C68.4481 13.666 68.4541 13.936 68.4541 14.32C68.4541 14.704 68.4481 14.974 68.4361 15.13C68.3641 16.414 67.9261 17.41 67.1221 18.118C66.3181 18.826 65.1661 19.18 63.6661 19.18ZM63.6661 16.984C64.1941 16.984 64.5841 16.828 64.8361 16.516C65.0881 16.192 65.2321 15.7 65.2681 15.04C65.2801 14.92 65.2861 14.68 65.2861 14.32C65.2861 13.96 65.2801 13.72 65.2681 13.6C65.2321 12.952 65.0821 12.466 64.8181 12.142C64.5661 11.818 64.1821 11.656 63.6661 11.656C62.6701 11.656 62.1421 12.304 62.0821 13.6L62.0641 14.32L62.0821 15.04C62.1061 15.7 62.2441 16.192 62.4961 16.516C62.7601 16.828 63.1501 16.984 63.6661 16.984Z" fill="black"/>
<path d="M75.606 19.18C73.89 19.18 72.546 18.766 71.574 17.938C70.614 17.098 70.104 15.886 70.044 14.302C70.032 13.978 70.026 13.45 70.026 12.718C70.026 11.974 70.032 11.434 70.044 11.098C70.104 9.538 70.626 8.338 71.61 7.498C72.594 6.646 73.926 6.22 75.606 6.22C76.662 6.22 77.61 6.4 78.45 6.76C79.29 7.108 79.95 7.612 80.43 8.272C80.922 8.92 81.174 9.682 81.186 10.558V10.594C81.186 10.69 81.144 10.774 81.06 10.846C80.988 10.906 80.904 10.936 80.808 10.936H78.378C78.222 10.936 78.102 10.906 78.018 10.846C77.934 10.774 77.862 10.648 77.802 10.468C77.634 9.856 77.37 9.43 77.01 9.19C76.65 8.938 76.176 8.812 75.588 8.812C74.172 8.812 73.44 9.604 73.392 11.188C73.38 11.512 73.374 12.01 73.374 12.682C73.374 13.354 73.38 13.864 73.392 14.212C73.44 15.796 74.172 16.588 75.588 16.588C76.176 16.588 76.656 16.462 77.028 16.21C77.4 15.946 77.658 15.52 77.802 14.932C77.85 14.752 77.916 14.632 78 14.572C78.084 14.5 78.21 14.464 78.378 14.464H80.808C80.916 14.464 81.006 14.5 81.078 14.572C81.162 14.644 81.198 14.734 81.186 14.842C81.174 15.718 80.922 16.486 80.43 17.146C79.95 17.794 79.29 18.298 78.45 18.658C77.61 19.006 76.662 19.18 75.606 19.18ZM87.3086 19.18C85.8206 19.18 84.6746 18.826 83.8706 18.118C83.0666 17.41 82.6286 16.414 82.5566 15.13C82.5446 14.974 82.5386 14.704 82.5386 14.32C82.5386 13.936 82.5446 13.666 82.5566 13.51C82.6286 12.238 83.0786 11.248 83.9066 10.54C84.7346 9.82 85.8686 9.46 87.3086 9.46C88.7606 9.46 89.9006 9.82 90.7286 10.54C91.5566 11.248 92.0066 12.238 92.0787 13.51C92.0907 13.666 92.0967 13.936 92.0967 14.32C92.0967 14.704 92.0907 14.974 92.0787 15.13C92.0066 16.414 91.5686 17.41 90.7646 18.118C89.9606 18.826 88.8086 19.18 87.3086 19.18ZM87.3086 16.984C87.8366 16.984 88.2266 16.828 88.4786 16.516C88.7306 16.192 88.8746 15.7 88.9106 15.04C88.9226 14.92 88.9286 14.68 88.9286 14.32C88.9286 13.96 88.9226 13.72 88.9106 13.6C88.8746 12.952 88.7246 12.466 88.4606 12.142C88.2086 11.818 87.8246 11.656 87.3086 11.656C86.3126 11.656 85.7846 12.304 85.7246 13.6L85.7066 14.32L85.7246 15.04C85.7486 15.7 85.8866 16.192 86.1386 16.516C86.4026 16.828 86.7926 16.984 87.3086 16.984ZM94.3346 19C94.2026 19 94.0946 18.958 94.0106 18.874C93.9266 18.79 93.8846 18.682 93.8846 18.55V10.09C93.8846 9.958 93.9266 9.85 94.0106 9.766C94.0946 9.682 94.2026 9.64 94.3346 9.64H96.4046C96.5366 9.64 96.6446 9.688 96.7286 9.784C96.8246 9.868 96.8726 9.97 96.8726 10.09V10.81C97.5326 10.03 98.4206 9.64 99.5366 9.64H100.329C100.461 9.64 100.569 9.682 100.653 9.766C100.737 9.85 100.779 9.958 100.779 10.09V11.944C100.779 12.064 100.737 12.172 100.653 12.268C100.569 12.352 100.461 12.394 100.329 12.394H98.5826C98.0906 12.394 97.7066 12.532 97.4306 12.808C97.1666 13.072 97.0346 13.45 97.0346 13.942V18.55C97.0346 18.682 96.9866 18.79 96.8906 18.874C96.8066 18.958 96.6986 19 96.5666 19H94.3346ZM106.398 19.18C104.91 19.18 103.764 18.826 102.96 18.118C102.156 17.41 101.718 16.414 101.646 15.13C101.634 14.974 101.628 14.704 101.628 14.32C101.628 13.936 101.634 13.666 101.646 13.51C101.718 12.238 102.168 11.248 102.996 10.54C103.824 9.82 104.958 9.46 106.398 9.46C107.85 9.46 108.99 9.82 109.818 10.54C110.646 11.248 111.096 12.238 111.168 13.51C111.18 13.666 111.186 13.936 111.186 14.32C111.186 14.704 111.18 14.974 111.168 15.13C111.096 16.414 110.658 17.41 109.854 18.118C109.05 18.826 107.898 19.18 106.398 19.18ZM106.398 16.984C106.926 16.984 107.316 16.828 107.568 16.516C107.82 16.192 107.964 15.7 108 15.04C108.012 14.92 108.018 14.68 108.018 14.32C108.018 13.96 108.012 13.72 108 13.6C107.964 12.952 107.814 12.466 107.55 12.142C107.298 11.818 106.914 11.656 106.398 11.656C105.402 11.656 104.874 12.304 104.814 13.6L104.796 14.32L104.814 15.04C104.838 15.7 104.976 16.192 105.228 16.516C105.492 16.828 105.882 16.984 106.398 16.984ZM113.424 19C113.292 19 113.184 18.958 113.1 18.874C113.016 18.79 112.974 18.682 112.974 18.55V10.09C112.974 9.958 113.016 9.85 113.1 9.766C113.184 9.682 113.292 9.64 113.424 9.64H115.494C115.626 9.64 115.734 9.682 115.818 9.766C115.914 9.85 115.962 9.958 115.962 10.09V10.774C116.286 10.378 116.7 10.06 117.204 9.82C117.72 9.58 118.302 9.46 118.95 9.46C120.006 9.46 120.864 9.82 121.524 10.54C122.184 11.248 122.514 12.244 122.514 13.528V18.55C122.514 18.67 122.472 18.778 122.388 18.874C122.304 18.958 122.196 19 122.064 19H119.796C119.676 19 119.568 18.958 119.472 18.874C119.388 18.778 119.346 18.67 119.346 18.55V13.636C119.346 13.072 119.208 12.64 118.932 12.34C118.656 12.028 118.26 11.872 117.744 11.872C117.24 11.872 116.844 12.028 116.556 12.34C116.268 12.64 116.124 13.072 116.124 13.636V18.55C116.124 18.67 116.082 18.778 115.998 18.874C115.914 18.958 115.806 19 115.674 19H113.424ZM127.349 19.18C126.713 19.18 126.131 19.06 125.603 18.82C125.087 18.568 124.679 18.232 124.379 17.812C124.091 17.38 123.947 16.906 123.947 16.39C123.947 15.562 124.283 14.896 124.955 14.392C125.639 13.888 126.575 13.54 127.763 13.348L130.013 13.006V12.754C130.013 12.298 129.917 11.962 129.725 11.746C129.533 11.53 129.209 11.422 128.753 11.422C128.477 11.422 128.249 11.47 128.069 11.566C127.889 11.662 127.703 11.794 127.511 11.962C127.343 12.106 127.217 12.202 127.133 12.25C127.097 12.346 127.031 12.394 126.935 12.394H124.973C124.853 12.394 124.751 12.358 124.667 12.286C124.595 12.202 124.565 12.106 124.577 11.998C124.589 11.674 124.745 11.314 125.045 10.918C125.357 10.522 125.825 10.18 126.449 9.892C127.085 9.604 127.865 9.46 128.789 9.46C130.265 9.46 131.357 9.79 132.065 10.45C132.773 11.098 133.127 11.974 133.127 13.078V18.55C133.127 18.67 133.085 18.778 133.001 18.874C132.917 18.958 132.809 19 132.677 19H130.589C130.469 19 130.361 18.958 130.265 18.874C130.181 18.778 130.139 18.67 130.139 18.55V17.92C129.875 18.292 129.503 18.598 129.023 18.838C128.555 19.066 127.997 19.18 127.349 19.18ZM128.195 17.128C128.747 17.128 129.191 16.948 129.527 16.588C129.875 16.228 130.049 15.7 130.049 15.004V14.752L128.519 15.022C127.439 15.214 126.899 15.592 126.899 16.156C126.899 16.456 127.025 16.696 127.277 16.876C127.529 17.044 127.835 17.128 128.195 17.128Z" fill="#EC5863"/>
</svg>
